<?xml version="1.0" encoding="utf-8"?>
<!-- Generator: Adobe Illustrator 24.2.0, SVG Export Plug-In . SVG Version: 6.00 Build 0)  -->
<svg version="1.1" id="Layer_1" xmlns="http://www.w3.org/2000/svg" xmlns:xlink="http://www.w3.org/1999/xlink" x="0px" y="0px"
	 viewBox="0 0 252 114.8" style="enable-background:new 0 0 252 114.8;" xml:space="preserve">
<style type="text/css">
	.st0{fill-rule:evenodd;clip-rule:evenodd;fill:#FFFFFF;}
	.st1{fill:#FFFFFF;}
</style>
<g>
	<path class="st0" d="M222.5,12.6v7.3h1.6v-2.7h1.2c0.4,0,0.6,0.1,0.8,0.2c0.2,0.1,0.3,0.4,0.3,0.6c0.1,1,0.1,1.6,0.2,1.7l0.1,0.2
		h1.6c-0.1-0.1-0.2-0.3-0.2-0.5c0-0.2-0.1-0.5-0.1-1.1c0-0.6-0.1-1-0.3-1.2c-0.2-0.3-0.4-0.4-0.7-0.5v0c0.4-0.1,0.7-0.4,0.9-0.7
		c0.2-0.3,0.3-0.7,0.3-1.1c0-0.7-0.2-1.2-0.6-1.5c-0.4-0.4-1-0.5-1.7-0.5L222.5,12.6L222.5,12.6z M225.1,22.4c-3.3,0-6-2.7-6-6
		c0-1.6,0.6-3.1,1.8-4.2c1.1-1.1,2.6-1.8,4.2-1.8c3.3,0,6,2.7,6,6C231.1,19.7,228.4,22.4,225.1,22.4L225.1,22.4z M217.7,16.4
		c0-2,0.8-3.9,2.2-5.3s3.3-2.2,5.3-2.2c4.1,0,7.5,3.4,7.5,7.5c0,4.1-3.4,7.5-7.5,7.5S217.7,20.5,217.7,16.4L217.7,16.4z M224.1,15.9
		V14h1.4c0.4,0,0.7,0.1,0.8,0.2s0.2,0.4,0.2,0.7c0,0.3-0.1,0.5-0.3,0.7c-0.2,0.1-0.4,0.2-0.7,0.2C225.5,15.9,224.1,15.9,224.1,15.9z
		"/>
	<g>
		<g>
			<g>
				<path class="st1" d="M205.2,65.3c0-0.1-0.2-0.2-0.2-0.2c-0.1,0.1-0.1,0.1-0.1,0.2c0,0.1,0.1,0.3,0.1,0.3c-0.2-0.1-0.1,0-0.2,0
					c-0.1,0.1-0.1,0.1,0,0.2c0.1,0,0.1,0.1,0.1,0.1c0,0.1-0.2,0.3-0.1,0.3c0.1,0,0.1-0.1,0.1-0.1c0,0.1,0,0.1,0.1,0.2
					c0.1,0,0.3-0.2,0.3-0.2c-0.1-0.1,0-0.2,0-0.2c0-0.1,0.1-0.2,0.1-0.3c0,0,0.2-0.2,0.1-0.3C205.4,65.5,205.2,65.4,205.2,65.3z"/>
				<path class="st1" d="M200,74.7c0,0.1,0.1,0,0.2,0c0.1,0,0.1,0,0,0C200.2,74.6,200.1,74.6,200,74.7z"/>
				<path class="st1" d="M201.2,72.6c0.1,0.1,0.2,0.1,0.2,0l0.2-0.1c-0.1,0-0.3,0-0.4-0.1C201,72.4,201,72.5,201.2,72.6z"/>
				<path class="st1" d="M193.5,71.4c0,0.1,0.1,0,0.1,0c0,0-0.1-0.1-0.2-0.1C193.5,71.3,193.5,71.4,193.5,71.4z"/>
				<path class="st1" d="M191.7,53.8c-0.1,0-0.1,0.1-0.1,0.1c0,0,0,0,0,0c0.1,0,0.1,0,0.2,0l0.2-0.1c0,0-0.1-0.1-0.2-0.1
					C191.8,53.8,191.9,53.8,191.7,53.8z"/>
				<path class="st1" d="M179.6,56.3c-0.1,8,4.8,14.8,11.7,17.8c0.2,0.1,0.5,0.2,0.7,0.3c0.3,0.1,0.6,0.2,0.9,0.3
					c0.5,0.2,1,0.3,1.5,0.4c0.1,0,0.2,0,0.2,0.1c1.3,0.3,2.7,0.5,4.1,0.5c2,0,3.9-0.3,5.7-0.9c7.7-2.4,13.4-9.6,13.5-18.1
					c0.1-10.5-8.3-19.1-18.8-19.3v0l-0.2,0h0h0h0h-0.2v0C188.2,37.4,179.7,45.8,179.6,56.3z M207.6,72.8c-0.2,0.1-0.5,0.2-0.7,0.3
					c-0.2,0.1-0.3,0.1-0.5,0.2c-0.3,0.1-0.6,0.2-0.9,0.3l0.1-0.1c0.2,0,0.3-0.1,0.3-0.1c0,0,0.2-0.1,0.2-0.2c0-0.1,0-0.2,0.2-0.3
					c0,0,0-0.1-0.1-0.2l0.7-0.9c0.1,0,0.3-0.1,0.4-0.1c1-0.3,1.9-0.6,2.7-1c-0.2,0.3-0.3,0.5-0.5,0.7c-0.2,0.3-0.5,0.5-0.8,0.8
					c0,0,0,0-0.1,0.1C208.2,72.4,207.9,72.6,207.6,72.8z M197,75c-0.1,0-0.2,0-0.2,0c-0.3,0-0.7-0.1-1-0.2c-0.1-0.1-0.2-0.1-0.2-0.2
					c0,0-0.1-0.1-0.1-0.1c0.2,0,0.4,0.1,0.6,0.1c0.8,0.1,1.5,0.1,2.3,0.1h0l0,0h0l0,0.4C198,75,197.5,75,197,75z M188.8,72.1
					c0,0-0.1-0.1-0.1-0.1c-0.3-0.2-0.5-0.5-0.8-0.8c-0.2-0.2-0.4-0.5-0.5-0.7c0.8,0.4,1.7,0.7,2.7,1c0.1,0,0.3,0.1,0.4,0.1l1.3,1.8
					c-0.3-0.1-0.6-0.2-0.9-0.3c-0.2-0.1-0.3-0.1-0.5-0.2c-0.2-0.1-0.4-0.2-0.6-0.3C189.4,72.5,189.1,72.3,188.8,72.1z M183.3,63.7
					c-0.1-0.1,0-0.3,0-0.4c0-0.1,0-0.6,0-0.6c0.1,0,0.1-0.1,0.3-0.3c0.1-0.1,0.2-0.3,0.3-0.4c0.3,0.2,0.7,0.4,1,0.6
					c0.2,0.1,0.4,0.2,0.6,0.3c0,1.3,0.1,2.5,0.3,3.7l0,0c-0.2-0.1-0.4-0.2-0.5-0.3c-0.5-0.3-0.9-0.5-1.3-0.8c0-0.1-0.1-0.2-0.2-0.3
					c-0.1-0.1-0.3-0.3-0.3-0.5c0-0.1-0.1-0.4-0.1-0.5c-0.1-0.1-0.1-0.3-0.1-0.3C183.3,63.9,183.3,63.8,183.3,63.7z M211.7,43.8
					c0.1,0.3,0.3,0.6,0.3,1c0,0.1,0,0.1,0,0.2c-0.2-0.2-0.5-0.4-0.7-0.6c-0.5-0.4-1-0.8-1.6-1.1c0,0,0.1,0,0.2,0
					c0,0-0.1-0.1-0.2-0.2c-0.1-0.1-0.5-0.4-0.7-0.5c-0.2-0.1-0.1-0.1,0.1-0.1c0.1,0,0.3,0.2,0.3,0.1c-0.1-0.1-0.3-0.4-0.4-0.5
					c-0.1,0-0.1-0.1-0.2-0.2l0.2,0.1c0.2,0.1,0.4,0.2,0.6,0.3c0.4,0.2,0.8,0.5,1.2,0.8C211,43.2,211.4,43.5,211.7,43.8z M212.4,68.9
					c-0.1,0.1-0.2,0.2-0.3,0.2c-0.4,0.3-0.8,0.5-1.2,0.8c-0.2,0.1-0.3,0.2-0.5,0.3l1.1-2.9c1-0.5,1.8-1,2.5-1.6
					c-0.2,0.7-0.5,1.3-0.9,1.9c-0.1,0.2-0.3,0.5-0.4,0.7c-0.1,0.1-0.2,0.3-0.3,0.4C212.5,68.8,212.5,68.8,212.4,68.9z M204.2,62.9
					c0,0-0.1,0-0.2,0.1c0,0-0.2,0-0.2,0.1c-0.1,0.1-0.1,0.1-0.2,0.2c0-0.3,0-0.5,0-0.8c0-0.5-0.1-1.1-0.1-1.6
					c1.5-0.2,2.9-0.5,4.2-0.8c0.1,0.4,0.1,0.8,0.2,1.2c-0.2-0.1-0.4-0.1-0.5-0.2c-0.1-0.1-0.1-0.1-0.1-0.1c-0.1,0,0,0,0,0.1
					c0,0.1,0.2,0.5,0.2,0.5c0,0,0,0.1-0.1,0.2c-0.2,0-0.2,0-0.3,0c-0.1,0-0.1-0.1-0.1-0.1c0-0.1-0.1-0.1,0-0.2c-0.1,0-0.2,0-0.2,0
					c-0.1,0.1-0.2,0.2-0.3,0.3c-0.1,0-0.1,0.1-0.2,0.1c-0.2,0-0.3,0-0.3,0c-0.1,0-0.1,0-0.2,0c-0.1,0-0.2,0.1-0.3,0.2
					c-0.1,0-0.3,0-0.4,0c-0.1,0-0.2,0-0.2,0c-0.1,0-0.1,0-0.2,0.1c0,0.1-0.1,0.1-0.1,0.1c-0.1,0-0.4,0.2-0.4,0.2
					C204.2,62.8,204.2,62.9,204.2,62.9z M184.8,68.6L184.8,68.6l0.1,0.1l0,0C184.8,68.6,184.8,68.6,184.8,68.6z M185,68.8
					c-0.1-0.2-0.3-0.5-0.4-0.6c-0.1-0.1-0.3-0.4-0.3-0.5c-0.1-0.2-0.3-0.4-0.2-0.6c0-0.2-0.1-0.5-0.1-0.5c0.1-0.3,0-0.3,0-0.6l0,0
					c0.5,0.4,1.1,0.7,1.8,1.1l1.1,2.9c-0.2-0.1-0.3-0.2-0.5-0.3c-0.4-0.2-0.8-0.5-1.2-0.8L185,68.8z M183.7,60.5
					c0.2-0.1,0.4,0,0.4,0.1c0,0.1,0.3,0.3,0.3,0.3c0.2-0.2,0.5-0.4,0.5-0.4c0.3,0.2,0.5,0.3,0.6,0.4c-0.1,0.6-0.1,1.2-0.1,1.8l0,0.1
					l-0.1-0.1c-0.1-0.1-0.3-0.2-0.4-0.2c-0.3-0.2-0.7-0.4-1-0.6c-0.1-0.3-0.1-0.5-0.1-0.5c0,0,0-0.4,0-0.4L183.7,60.5z M183.6,50.1
					c0-0.1,0-0.2,0-0.3l0,0l0,0c0.1,0.2,0.2,0.4,0.3,0.6C183.9,50.3,183.6,50.1,183.6,50.1z M184.5,51.3c0,0,0.1-0.1,0.1-0.2
					c0.1,0.1,0.3,0.3,0.4,0.4l0,0c-0.2,0-0.4-0.1-0.4-0.1C184.5,51.5,184.4,51.4,184.5,51.3z M185.3,51.5L185.3,51.5l0.1-0.2
					c0.2-0.4,0.4-0.7,0.7-1.1c0,0,0,0,0,0c0.1,0,0.2,0,0.3,0c0.1,0.1,0.1,0,0.1-0.1c0-0.1-0.1,0-0.1-0.1c0-0.1-0.1-0.1-0.1-0.2
					c0.1-0.2,0.3-0.4,0.4-0.6l0.1,0c0,0,0.1-0.1,0.2,0c0.1,0,0.2-0.1,0.2-0.1l0.2,0c0,0,0.1,0,0.2-0.1c0,0,0.2-0.1,0.3-0.2
					c0.2,0.1,0.3,0.2,0.5,0.3c0,0,0,0.1,0,0.1c0,0.1,0.1,0.2,0.2,0.2c0,0,0.1,0.1,0.2,0.2c-0.1,0.1-0.1,0.2-0.2,0.5
					c0,0,0.1,0.3,0.2,0.4c0,0,0,0,0,0l-0.6,1.4c-0.1-0.1-0.1-0.2-0.3-0.3c-0.3-0.2-0.6-0.5-0.7-0.6c-0.1,0-0.2-0.2-0.3-0.3
					c-0.1-0.1,0-0.1,0-0.1c-0.1,0-0.2,0-0.2-0.1c-0.1,0.4,0,0.3-0.2,0.4c-0.1,0.1-0.1,0.2-0.1,0.3c0,0.1,0,0.4,0,0.4
					c-0.2,0.1-0.4,0.1-0.5,0C185.8,51.6,185.4,51.4,185.3,51.5z M186.3,49.6C186.3,49.6,186.3,49.6,186.3,49.6
					c0-0.2,0.1-0.2,0.2-0.3L186.3,49.6z M187.6,48.6L187.6,48.6c-0.1,0-0.2,0.1-0.4,0.2c0.1-0.1,0.2-0.2,0.2-0.3
					C187.4,48.5,187.5,48.5,187.6,48.6z M187.5,48.3l0.1-0.1c0.1-0.1,0.3-0.1,0.3-0.1c0.1,0.2,0.1,0.2,0,0.3c0,0.1-0.1,0.1-0.1,0.1
					L187.5,48.3L187.5,48.3z M188.1,48.8c0.1,0,0.1,0,0.2,0l0,0.1L188.1,48.8z M189.7,44.4C189.6,44.4,189.6,44.4,189.7,44.4
					c0-0.1,0.2-0.2,0.3-0.2c0.2,0.2,0.3,0.4,0.6,0.6l-0.3,0.3l-0.2,0.1c-0.1,0-0.1,0.1-0.1,0.1l-0.4,0.5c0-0.1,0-0.2,0-0.2
					c0-0.1-0.2-0.2-0.2-0.1c0,0,0-0.3,0-0.3c0,0,0.1-0.2,0.2-0.3c0-0.1,0.1-0.1,0.2-0.2c0.1,0,0.2-0.2,0.2-0.2
					C190,44.4,189.8,44.4,189.7,44.4z M195,39.6c0,0-0.2,0.1-0.4,0.2l0.1-0.1l0.1,0l0-0.1c0.1-0.1,0.3-0.2,0.5-0.3
					c0.1-0.1,0.2-0.1,0.3-0.1l0.1,0l0,0c0.3-0.1,0.6-0.2,0.9-0.3l0.1,0l0,0c0.3-0.1,0.7-0.2,1-0.2l0,0.1l0.1-0.1l0.1,0
					c0.3,0,0.6,0,0.9-0.1h0l0,0h0.2l0.2,0h0l0,0c0.3,0,0.6,0,0.9,0.1l0.1,0l0.1,0.1l0-0.1c0.4,0.1,0.7,0.1,1,0.2l0,0l0.1,0
					c0.3,0.1,0.6,0.2,0.9,0.4l0,0l0.1,0c0.1,0,0.2,0.1,0.3,0.2c0.2,0.1,0.3,0.2,0.4,0.3l0,0.1l0.1,0c0.1,0.1,0.1,0.1,0.2,0.2
					c0.1,0.1,0.1,0.2,0.2,0.3l0,0.1l0,0l0,0c0,0.1,0.1,0.2,0.1,0.3c0,0.1,0,0.1,0,0.2l0,0.1l0,0l0,0l0,0c-0.1,0-0.1,0-0.3,0
					c0,0-0.1,0.1-0.1,0.1c0,0-0.1,0.1,0,0.1c0,0,0.2,0,0.2,0c0,0,0.1,0,0.1,0c0,0,0,0.1,0,0.1c0,0-0.1,0-0.1,0.1
					c0,0-0.2,0.1-0.2,0.1s-0.1,0-0.1,0c0,0.1,0.1,0.2,0.1,0.2c0,0,0,0,0.1,0c0,0-0.1,0.1-0.1,0.1c0,0-0.1,0-0.2-0.1
					c-0.1,0-0.1,0-0.2,0c-0.1,0,0,0.1,0.1,0.2c0,0,0.1,0,0.1,0.1l0,0.1l0,0c0,0,0,0,0,0c0,0-0.1,0-0.1,0l0.1,0l-0.1,0.1l0,0
					c0,0,0-0.1,0-0.1c0-0.1-0.1-0.1-0.1-0.2c0-0.1-0.1-0.1-0.1-0.1l-0.1,0l-0.1,0.3c0.1,0.1,0.2,0.1,0.1,0.2c0,0.1-0.1,0.1-0.1,0.1
					c-0.1,0-0.2,0-0.2,0.1c0,0-0.2,0.1-0.2,0l0.1,0.1c0,0,0,0,0,0l-0.1,0c-0.1,0-0.1,0-0.2,0.1c-0.1,0.1-0.3,0.1-0.4,0.1l0,0
					l-0.1,0.1c-0.3,0.1-0.6,0.1-1,0.2c0,0,0,0,0-0.1c0.1-0.2,0.1-0.2,0.2-0.3c0.1-0.1,0.5,0,0.5,0c0.1-0.1,0.2-0.2,0.1-0.3
					c0-0.1,0-0.3-0.2-0.3c-0.3,0-0.4-0.1-0.4-0.1c-0.1-0.1-0.2-0.2-0.2-0.2c0.2-0.1,0.2-0.1,0.1-0.1c-0.1,0-0.7-0.3-0.7-0.3
					c-0.1,0.1-0.3,0.2-0.3,0.2s-0.1,0.1-0.1,0c0-0.1,0-0.3,0-0.3s-0.4-0.1-0.5-0.1c-0.1-0.1-0.2,0-0.3,0.1c-0.1,0-0.2,0.1-0.2,0.1
					c0.3,0.1,0.4,0.2,0.3,0.2c-0.1,0-0.2,0.1-0.2,0.1c-0.1-0.1-0.6-0.3-0.7-0.2c0,0,0,0.2,0,0.3c0,0.1-0.1,0.2-0.1,0.6
					c0,0-0.1,0.2-0.2,0.2c-0.1,0-0.2,0.1-0.2,0.2c0,0.1,0,0.2-0.1,0.3c-0.2,0-0.4-0.1-0.6-0.1l-0.1-0.1l0,0c-0.1,0-0.3-0.1-0.4-0.1
					c-0.1,0-0.1,0-0.2-0.1c-0.1,0-0.2-0.1-0.3-0.1l-0.1-0.1l0,0c-0.1,0-0.1-0.1-0.2-0.1c-0.1-0.1-0.2-0.1-0.3-0.2
					c-0.1,0-0.1-0.1-0.2-0.1l0-0.1l0,0c0,0-0.1-0.1-0.1-0.1l0,0c-0.1-0.1-0.1-0.2-0.2-0.2c0-0.1-0.1-0.1-0.1-0.2l0,0h0
					c0,0,0-0.1,0-0.1c0-0.1-0.1-0.2-0.1-0.3l0,0l0,0l0-0.1c0-0.1,0-0.1,0-0.2c0-0.1,0.1-0.2,0.1-0.3l0,0l0,0l0-0.1
					c0-0.1,0.1-0.1,0.1-0.2c0.3-0.1,0.6-0.3,0.7-0.4C195.2,39.5,195.1,39.6,195,39.6z M195.2,39c0.1,0,0.2,0,0.3,0c0,0,0.1,0,0.1,0
					c-0.1,0-0.1,0.1-0.2,0.1L195.2,39z M201.8,38.7c0.4,0.1,0.9,0.2,1.3,0.3c-0.2,0-0.5,0-0.7,0.1c-0.2-0.1-0.5-0.2-0.7-0.3
					C201.7,38.7,201.7,38.7,201.8,38.7z M201.2,38.6C201.3,38.6,201.3,38.6,201.2,38.6C201.3,38.6,201.3,38.6,201.2,38.6
					C201.3,38.6,201.3,38.6,201.2,38.6z M206.6,45.8c0,0.1,0.2,0.3,0.2,0.3c-0.2,0-0.3,0-0.4,0.1c-0.1,0.1-0.2,0.3-0.2,0.4
					c-0.2-0.3-0.4-0.6-0.7-0.8c0.3-0.2,0.6-0.3,0.8-0.5c0.1,0.1,0.2,0.3,0.2,0.3C206.5,45.7,206.5,45.7,206.6,45.8z M207,53
					c0,0,0,0-0.1,0.1c-0.1,0.1,0,0.2,0.1,0.4c0,0,0.2,0.2,0.3,0.2c0.1,0,0.4,0.2,0.6,0.2c0.2,0.1,0.4,0.1,0.5,0.2
					c-0.5,0.2-1.1,0.4-1.7,0.6c-0.3-1-0.6-1.9-0.9-2.8c0.1,0,0.2,0.1,0.3,0.1c0,0,0,0.1,0,0.2c0,0.1,0,0.1,0.1,0.1
					c0.1,0,0.1,0.1,0.2,0.2c0,0,0-0.2,0.1-0.2c0,0,0,0.1,0,0.2c0,0.1,0,0.2,0,0.2c0,0.1,0.1,0,0.1,0.1c0,0.1,0.1,0.1,0.2,0
					c0.1-0.1,0-0.1,0-0.1c0-0.1,0-0.2,0-0.2s-0.1-0.1-0.1-0.2c-0.1-0.1,0-0.1,0,0c0.1,0,0.1,0,0.1,0.1c0,0.1,0,0.1,0,0.1
					c0,0.1,0,0.1,0,0.1c0,0,0.1-0.1,0.2-0.2c0,0-0.1,0.2-0.1,0.3C206.9,52.8,206.9,52.8,207,53z M208.9,56.1c0,0.2,0.1,0.2,0.1,0.3
					c0.2,0.1,0.3-0.1,0.2-0.4c0-0.1,0-0.6,0.1-0.7c0,0-0.1-0.3-0.1-0.4c0-0.1,0.1-0.4,0.2-0.4c0.1,0,0.3-0.1,0.5-0.3
					c0,0,0-0.1,0-0.1c0.4,0.9,0.7,1.9,1,2.9c0,0,0,0.1,0,0.1c0,0,0,0,0,0c0.1,0.4,0.3,0.9,0.4,1.3l-0.2,0.1
					c-0.7,0.3-1.4,0.6-2.2,0.9c-0.3,0.1-0.7,0.2-1.1,0.3c0-0.2-0.1-0.4-0.1-0.6c0,0,0,0,0,0c0,0,0.1-0.1,0.1-0.1c0,0-0.1-0.1-0.1,0
					l0,0c0-0.2-0.1-0.3-0.1-0.5c-0.1-0.7-0.3-1.5-0.5-2.2c-0.1-0.5-0.2-1-0.4-1.4c0.6-0.2,1.2-0.4,1.8-0.6c0,0.1,0.1,0.2,0.2,0.3
					c0,0,0,0.1,0,0.2c0,0.1,0,0.7,0,1C208.8,56.1,208.9,56,208.9,56.1z M211.1,53.9c0.1-0.2,0.2-0.1,0.2-0.1s0.5-0.2,0.4-0.1
					c-0.1,0.1,0.3,0.2,0.5,0.1c0.2,0,0.2,0.1,0.2,0.3c0,0.2,0.1,0.2,0.1,0.4c0,0,0.2,0.2,0.3,0.3c0.1,0,0.1,0,0,0.2
					c0,0,0.1,0.1,0.1,0.3c0,0.1,0,0.2,0.1,0.4c0,0,0,0.2,0,0.4c0,0.2-0.1,0.2,0,0.4c0,0.1-0.1,0.2-0.1,0.3c0,0.1-0.1,0.1-0.2,0.4
					c0,0-0.2,0.1-0.4,0.1c-0.2,0-0.2,0-0.2,0.2c-0.1,0.2,0,0,0,0s-0.2,0-0.3-0.3c0,0-0.1-0.2-0.1-0.3c0-0.1-0.1-0.1-0.2-0.1
					c-0.1,0-0.1,0-0.3,0c-0.1,0-0.1,0-0.2,0.1c-0.3-0.9-0.6-1.8-0.9-2.7c0,0,0.1,0,0.2,0c0.3,0,0.1,0.1,0.3-0.1
					c0.2-0.2,0.1,0.1,0.1,0.1S211,54.1,211.1,53.9z M210.8,44.2c0.4,0.3,0.8,0.6,1.2,1l0,0.1c0,0,0,0.1,0,0.1c0,0.1,0,0.3-0.1,0.4
					c-0.1-0.1-0.2-0.3-0.2-0.4c-0.1-0.3-0.1,0-0.1,0.2c0,0-0.3-0.4-0.4-0.5c-0.1-0.1-0.2-0.5-0.2-0.7
					C210.9,44.4,210.9,44.3,210.8,44.2z M214.9,53.8c0-0.1,0.1-0.3,0-0.5c0,0,0-0.1,0.1-0.2c0-0.1-0.1-0.6-0.2-0.9l0.1-0.5
					c0,0,0,0-0.2-0.1c0,0,0-0.4,0-0.6l0.1,0.1l0.1,0.3c0.5,1,0.9,2,1.2,3.1l-0.1,0.1c-0.3,0.5-0.7,1-1.3,1.5l-0.1,0.1l-0.2,0.2
					l0-0.2l-0.1-0.2c0,0,0-0.1,0.1-0.1c0-0.1,0-0.2,0.1-0.2c0.1,0,0-0.2,0-0.2s0,0,0,0c0-0.1,0.1-0.1,0-0.2c0-0.1-0.2-0.8-0.2-0.8
					c0.1-0.4,0.1-0.5,0.1-0.6c0,0,0-0.1,0-0.1c0-0.1,0.1-0.2,0-0.2c0-0.1,0-0.3,0-0.3c0-0.1,0-0.2,0-0.2c-0.1-0.1-0.1-0.2-0.1-0.2
					c0-0.1,0-0.1,0-0.2l0-0.3c0,0,0-0.4,0-0.5c0-0.1-0.1-0.6-0.2-0.7c-0.1-0.1-0.1-0.5,0-0.7c0,0,0.3,0.7,0.3,0.7c0,0,0,0.3,0.1,0.4
					c0,0.1,0,0.2,0,0.4l0.1,0.3c0,0,0,0.3,0.1,0.4c0.1,0.1,0.1,0.5,0.1,0.7c0,0.2,0,0.3,0,0.3C214.7,53.7,214.8,53.9,214.9,53.8z
					 M210.4,59.4c0.1,0.1,0,0.1,0,0.2c0,0,0,0.2,0.1,0.3c0.1,0.1,0.1,0.2,0.1,0.3c0,0.1,0,0.1,0.1,0.3c0,0,0,0.1-0.1,0.2
					c0,0.1,0,0.1-0.1,0.2c-0.1,0.1-0.1,0.2-0.2,0.3c-0.1,0.1-0.1,0.2-0.1,0.1c0,0-0.3,0-0.5,0c-0.2,0-0.2,0-0.2,0.1
					c-0.1,0.1-0.1,0.2-0.3,0.3c-0.1,0-0.4,0-0.4,0c0-0.1-0.2-0.1-0.2-0.1c0-0.2,0.1-0.2-0.1-0.2c-0.1,0-0.3,0-0.5,0l-0.1-1.4
					c1-0.3,1.9-0.6,2.8-1l0,0c0,0.1-0.1,0.1-0.2,0.2C210.4,59.3,210.4,59.3,210.4,59.4z M211.2,60.3c0.1-0.2,0.2-0.6,0.3-0.8
					c0,0.3,0.1,0.5,0.1,0.8c0.1,0.9,0.2,1.8,0.2,2.7l0,0.2l-0.2,0.1c-0.5,0.2-1.1,0.5-1.6,0.7c0,0-0.1,0-0.1,0c-0.1,0-0.2,0-0.3-0.2
					c0-0.2-0.2-0.2-0.3-0.1c-0.1,0.1-0.1,0-0.3-0.2c0,0,0.1,0,0.2-0.1c0.1-0.1,0-0.5,0-0.7c0-0.1,0-0.1,0.1-0.4
					c0.1-0.1,0.1-0.2,0.1-0.3c-0.1,0-0.1,0,0-0.1c0.1-0.1,0.3-0.2,0.3-0.2c0.1,0,0.2,0.1,0.3,0.1c0,0,0,0,0,0
					c-0.1,0.1-0.1,0.2-0.1,0.2c0,0,0.1,0.1,0.1,0.1c0.1-0.1,0.1-0.2,0.1-0.2c0,0,0.1-0.1,0.1-0.1c0,0,0.1-0.1,0.2-0.1
					c0.1,0,0.2-0.1,0.3-0.2c0-0.1,0.2-0.3,0.2-0.4c0-0.1,0.2-0.2,0.2-0.2c0,0.1,0,0.2,0.1,0.1c0,0,0.2-0.1,0.1-0.2
					C211.2,60.5,211.2,60.3,211.2,60.3z M211.5,58.3c0,0,0,0.1,0.1,0.1l-0.1,0c-0.1-0.2-0.1-0.4-0.2-0.5l0.1-0.1c0,0,0,0.1,0.1,0.2
					C211.5,58.1,211.5,58.1,211.5,58.3C211.5,58.2,211.5,58.2,211.5,58.3z M208.6,68c0-0.1,0.1-0.3,0.2-0.4c0.1-0.1,0.2-0.2,0.2-0.3
					c0-0.1,0.1-0.2,0.2-0.3c0.1-0.1,0.1-0.2,0.1-0.3c0-0.1,0-0.2,0.2-0.4c0.1-0.1,0.4-0.5,0.5-0.6c0.1-0.1,0-0.3,0.1-0.4
					c0.1-0.1,0-0.2-0.1-0.2c-0.1,0-0.1-0.1-0.1-0.2c0-0.1,0-0.1,0.1-0.3c0,0,0-0.2,0-0.4c0-0.1-0.1-0.1-0.1-0.2
					c0.6-0.2,1.2-0.5,1.8-0.8c0,1.1-0.1,2.2-0.3,3.2c0,0.2-0.1,0.4-0.1,0.5l-0.3,0.1c-0.4,0.2-0.9,0.4-1.3,0.6
					c-0.3,0.1-0.5,0.2-0.8,0.3c-0.2,0.1-0.3,0.1-0.5,0.2C208.6,68.2,208.6,68.1,208.6,68z M211.6,67c0.3-1.1,0.4-2.4,0.4-3.7
					c0.2-0.1,0.4-0.2,0.6-0.3c0.9-0.5,1.6-1,2.3-1.5c0,0.5-0.1,1-0.1,1.5c-0.1,0.8-0.3,1.6-0.5,2.3c-0.1,0.1-0.1,0.1-0.2,0.2
					c-0.5,0.4-1.2,0.8-1.8,1.2C212,66.8,211.8,66.9,211.6,67L211.6,67z M214.7,61.4c-0.6,0.5-1.3,1-2.1,1.4
					c-0.1,0.1-0.3,0.2-0.4,0.2l-0.1,0.1l0-0.1c0-0.9-0.1-1.8-0.2-2.7c0-0.3-0.1-0.6-0.1-0.9c0,0,0.1,0,0.1-0.1
					c0.1-0.1,0.2-0.3,0.3-0.3c0.1-0.1,0.2-0.2,0.2-0.3c0.1-0.1,0.2-0.2,0.2-0.3c0-0.1,0.1-0.3,0.1-0.3l0,0c0.1-0.1,0.3-0.2,0.4-0.2
					c0.1,0,0.1,0,0.2-0.1c0,0,0.1-0.1,0.2-0.2c0.3-0.2,0.6-0.4,0.9-0.6c0.2,0.8,0.4,1.7,0.5,2.6c0.1,0.6,0.1,1.2,0.1,1.8L214.7,61.4
					z M213.7,57.1c0,0,0.1-0.1,0.1-0.1c0.1-0.1,0.1-0.3,0.2-0.4c0,0,0.1-0.1,0.1-0.2l0.1,0.3l-0.1,0.1C214,56.9,213.9,57,213.7,57.1
					z M214.5,56.7c0.1-0.1,0.3-0.3,0.4-0.4c0.5-0.5,0.9-1,1.2-1.5c0.1,0.5,0.2,1,0.3,1.5c0.2,0.9,0.2,1.8,0.3,2.7
					c0,0.1-0.1,0.1-0.1,0.2c-0.3,0.6-0.8,1.1-1.3,1.6c-0.1,0.1-0.2,0.2-0.3,0.2c0-0.4,0-0.8,0-1.2C214.9,58.8,214.8,57.8,214.5,56.7
					z M214.1,48.9c0-0.1-0.1-0.1-0.1-0.2c0-0.1-0.2-0.4-0.4-0.7l0.1-0.1c0,0,0-0.1-0.1-0.2c-0.1-0.2-0.1-0.2-0.2-0.4
					c-0.1-0.1-0.3-0.4-0.3-0.4c-0.1,0-0.7-0.7-0.9-0.8c0,0-0.1-0.1-0.2-0.1c0.1-0.2,0.1-0.4,0.1-0.6l0-0.1l0.1,0.1l0,0
					c0.7,0.6,1.3,1.3,1.9,2.1c0,0.1,0,0.3,0,0.4l0,0C214.2,48.3,214.2,48.6,214.1,48.9z M200.7,65.3c0.1,0.1,0.3,0.4,0.3,0.4l0.1,0
					l-0.2,0c0,0-0.1,0-0.1,0c-0.4,0-0.7,0-1.1,0c-0.2,0-0.5,0-0.7,0h0h0h0h0h0h0h0l0-0.7l0-2.2v0l0-1.6h0h0h0h0c0.6,0,1.1,0,1.7,0
					c0.9,0,1.8-0.1,2.7-0.2c0,0.4,0,0.7,0.1,1.1l0,0.5c0,0.3,0,0.6,0,0.9c0,0-0.1,0.1-0.1,0.2c0,0.2-0.3,0.3-0.3,0.3
					c-0.1,0-0.2,0-0.3,0c-0.1,0-0.3,0-0.4,0c-0.1,0-0.2,0-0.3,0.1c-0.4,0.1-0.5,0.2-0.5,0.3c-0.2,0.1-0.2,0.1-0.3,0.2
					c-0.1,0-0.3,0.1-0.3,0.3c0,0.1-0.1,0.2-0.1,0.3C200.7,65.1,200.5,65.2,200.7,65.3z M201,65.9L201,65.9c0,0.1,0,0.1-0.1,0.2
					c-0.1-0.1-0.1,0-0.1-0.2L201,65.9z M200.1,72.4l0.2,0.2c0,0,0.1,0,0.1,0c-0.3,0-0.5,0-0.8,0c-0.3,0-0.5,0-0.8,0l0,0h0h0h0h0h0h0
					l0-0.2v0l0-1c0,0,0.1,0,0.2,0c0,0,0.1,0.1,0.2,0.1c0,0,0.2,0.1,0.2,0.1c0,0,0.2,0,0.2,0.1c0.1,0.1,0.1,0.1,0.3,0.1
					c0,0.1,0.1,0.1,0.1,0.1c0,0,0.1,0,0.1,0.1c0,0.1,0,0.2,0,0.2C200.1,72.3,200,72.2,200.1,72.4z M200.3,66.3
					c-0.1-0.1-0.1-0.3-0.3-0.3c-0.2,0-0.3,0-0.5,0.1c-0.2,0.1-0.6,0.2-0.8,0.3l0,0l0-0.4h0h0h0c0.5,0,0.9,0,1.4,0
					c0.1,0.1,0.2,0.3,0.3,0.3c0.2,0,0.3,0,0.3,0c-0.1,0.1-0.1,0.2-0.2,0.2C200.5,66.4,200.4,66.4,200.3,66.3z M200.3,44.9
					c0-0.1,0-0.3-0.1-0.3c-0.1,0-0.3-0.2-0.3-0.2c0-0.2,0.1-0.4,0.1-0.5c0.1,0,0.2,0,0.2,0c0.2,0.4,0.3,0.8,0.5,1.4
					c0.2,0.5,0.3,1.1,0.5,1.7l0,0c-0.3,0-0.7,0.1-1.1,0.1l-0.3,0c-0.3,0-0.5,0-0.8,0h0h0h0h0h0h0h0l0-0.3l0.2,0.1
					c0.2-0.1,0.5-0.3,0.5-0.3c0.1,0,0.2-0.1,0.3-0.2c0-0.1,0-0.2,0.2-0.4c0.1-0.2,0.2-0.3,0.2-0.4c0-0.1,0.1-0.4,0.1-0.4
					C200.3,45.2,200.3,45.1,200.3,44.9z M203.5,41.8L203.5,41.8L203.5,41.8c0.1-0.1,0.1-0.1,0.2-0.1l0.3,0.1l0.1,0l0.1,0l0,0
					c0,0-0.1,0-0.2,0.1l0.2,0.1c0,0,0.1,0.1,0.2,0.2c0.1,0,0.1,0.1,0.1,0.2c0,0,0,0.2,0.1,0.2c0.1,0,0.1,0.1,0.1,0.2
					c0,0,0.2,0,0.2,0c0.1,0,0.1-0.1,0.2,0c0.1,0,0.1-0.1,0-0.1c0,0,0-0.1,0.1-0.1c0,0,0.2,0,0.2,0c0.1,0,0-0.1,0.2,0l0,0l0.3,0.1
					l0,0c-0.2,0-0.7,0.1-0.7,0.1c0.1,0.1,0.1,0.2,0.1,0.2c0,0,0,0.2,0,0.2c-0.1,0-0.1,0-0.2,0c-0.4-0.3-0.7-0.5-1.1-0.7c0,0,0,0,0,0
					c0-0.1-0.1-0.2-0.2-0.2c-0.1,0-0.1-0.1-0.1-0.2c0,0-0.1,0-0.1,0c0,0,0,0,0,0.1l-0.3-0.2C203.3,42,203.4,41.9,203.5,41.8
					L203.5,41.8L203.5,41.8L203.5,41.8z M204.2,41.4c0.1,0.1,0.1,0.1,0.1,0.2c0,0,0.1,0,0.1,0c0,0,0.1,0,0.2,0c0,0,0.1,0,0.2,0
					c0,0,0.1,0,0.2,0c0,0,0.1-0.1,0.2,0l0.1,0c0,0-0.1-0.1-0.2-0.2c0,0-0.1-0.1-0.1-0.1c0.2,0.1,0.3,0.1,0.5,0.2
					c0,0.3,0.2,0.6,0.2,0.8c0,0,0,0.1,0,0.1l-0.2-0.1c0,0,0,0-0.1,0c-0.1,0-0.2-0.2-0.2-0.2c0-0.1-0.1-0.1-0.2-0.2
					c0,0-0.3-0.1-0.3,0c0,0-0.1,0-0.1,0l-0.6-0.3c0,0,0,0,0-0.1c-0.1-0.1-0.1-0.1-0.1-0.1l0,0c0-0.1,0.1-0.2,0.1-0.3l0.1,0
					c0.3,0.1,0.7,0.2,1.1,0.3c0,0,0,0,0,0c0,0-0.1,0-0.2-0.1c-0.1,0-0.2-0.1-0.2-0.1s-0.1,0-0.2-0.1c-0.1-0.1-0.1,0-0.2,0.1
					C204.1,41.2,204.1,41.4,204.2,41.4z M204,42.9c-0.1-0.2-0.2,0-0.3-0.1c-0.1-0.1-0.2-0.2-0.3-0.3l0-0.1c0.1,0.1,0.3,0.2,0.4,0.3
					l0,0c0,0,0,0,0.1,0L204,42.9c0.2,0,0.3,0.1,0.4,0.2c0,0,0,0,0,0c0,0.1,0,0.2,0,0.2s-0.1,0.1,0,0.1c0.1,0,0.2,0,0.2-0.1
					c0,0,0,0,0,0l0.2,0.1c-0.1,0.1-0.1,0.2-0.1,0.3c-0.2-0.1-0.5-0.2-0.5-0.2c0-0.1-0.1-0.1-0.1-0.1c0.1-0.1,0.1-0.2,0.1-0.2
					C204.1,42.9,204,42.9,204,42.9z M203.2,42.3L203.2,42.3c-0.2,0.1-0.3,0.3-0.2,0.2c0.1,0,0.3,0.1,0.3,0.1c0,0,0.3,0.1,0.3,0.1
					c0,0.1,0,0.4,0.1,0.4c0.1,0,0.2,0.1,0.2,0.1l0.1,0.3c-0.3-0.1-0.2-0.1-0.3-0.1c-0.1,0-0.2,0-0.3,0l-0.1-0.1c0.1,0,0.1,0,0.1-0.1
					c0-0.1,0.1-0.1,0.1-0.1c-0.1-0.1-0.1-0.2-0.1-0.2s-0.1-0.1-0.1-0.1c-0.1,0-0.1-0.1-0.1-0.1c0,0-0.2-0.1-0.2-0.1
					c-0.1,0-0.3,0-0.3,0c-0.1,0-0.1,0-0.1,0l0,0l-0.1-0.1c0.1-0.1,0.3-0.1,0.4-0.2c0,0,0,0,0,0c0.1,0,0.1-0.1,0.2-0.1L203.2,42.3z
					 M204.3,45c0.1-0.1,0.2,0,0.3,0.1c0,0,0,0,0,0l0.2,0.3l0.4,0.5l-0.2,0.1c-0.2,0.1-0.4,0.2-0.7,0.3l-0.2,0.1l0,0
					c0-0.2,0-0.3-0.1-0.3c-0.1-0.1-0.3-0.3-0.3-0.3c-0.1,0.1-0.2,0.2-0.4,0.2c-0.1,0-0.2,0-0.2,0.1c0,0,0,0.1,0,0.2
					c-0.1-0.2-0.2-0.3-0.3-0.5c0,0,0.1-0.1,0.1-0.1c0.1,0,0.3-0.1,0.3-0.1c0,0,0.1-0.1,0.1-0.1l0.1-0.1c-0.1,0-0.1-0.1-0.2-0.1
					c0,0,0-0.1-0.1,0c-0.1,0-0.3,0.1-0.3,0.1c-0.1,0-0.1,0-0.1,0c0-0.1,0.1-0.2,0-0.2c-0.1,0-0.2-0.1-0.2-0.1l-0.2-0.1
					c0.1-0.3,0.1-0.5,0.1-0.5l0-0.4c0.1-0.1,0.1-0.1,0.2-0.1c0.1,0,0.3,0,0.3-0.1l0.1,0.1l0.1,0.1l0,0.1c0,0.1,0.1,0.3,0.2,0.4
					c0.1,0,0.2,0.1,0.3,0.2c0.1,0.1,0.2,0.1,0.3,0l0.2,0.2l0,0c0,0,0,0.2-0.1,0.2c-0.1,0.1-0.2,0.3-0.1,0.4
					C204,45.3,204.3,45.1,204.3,45z M206,47.8c0,0.1,0.1,0.3,0.1,0.4c-0.1,0.1,0,0.3-0.2,0.4c-0.1,0-0.1,0.1-0.1,0.1
					c-0.1-0.1-0.2-0.2-0.3-0.2c0.1-0.1,0.1-0.1,0.1-0.3c0-0.1,0-0.3-0.1-0.4c-0.1-0.1-0.3-0.1-0.3-0.1c-0.2-0.1-0.5-0.2-0.5-0.2
					l-0.1,0c0-0.3-0.1-0.3-0.1-0.4c0-0.2-0.1-0.1,0-0.3c0.1-0.1,0.1-0.1,0.1-0.1c-0.2,0-0.2,0-0.3-0.1c0.4-0.1,0.7-0.3,1.1-0.4
					c0.3,0.3,0.5,0.7,0.8,1c0,0.1-0.1,0.1-0.1,0.1c-0.1,0-0.3,0.2-0.3,0.2C206,47.5,205.9,47.7,206,47.8z M202.1,50.1
					C202.1,50.1,202.1,50.1,202.1,50.1c-0.1-0.3-0.2-0.5-0.2-0.8c0.1,0.1,0.3,0.2,0.3,0.2c0.1,0,0.6,0,0.6,0s0.2-0.2,0.4-0.1
					c0.2,0.1,0.3,0,0.3,0c0.1-0.1,0.1-0.1,0.2,0.1c0.1,0.1,0.3,0.2,0.4,0.2c0.1,0,0.3,0.2,0.3,0.2c-0.4,0-0.3,0-0.5-0.1
					c-0.2-0.1-0.4-0.1-0.5-0.1c0,0.1,0,0.3,0.1,0.3c0.1,0,0.3,0.1,0.3,0.1c-0.2,0.1-0.3,0.1-0.3,0.2c0.1,0.1,0,0.3,0,0.3
					s-0.1,0.2-0.1,0.2c-0.1,0-0.4,0.2-0.4,0.2c0,0-0.1,0.1-0.2,0.1c0,0-0.1,0,0.2,0c0.1,0,0.2,0,0.3,0c-0.3,0-0.6,0.1-0.8,0.1
					l-0.2,0c-0.1-0.3-0.1-0.6-0.2-0.9c0,0,0.1,0,0.2,0C202.3,50.3,202.2,50.1,202.1,50.1z M202.2,47.5c-0.1,0.1,0.1,0.3,0.1,0.3
					c-0.3,0.1-0.4,0.3-0.5,0.4l-0.1,0c-0.1-0.4-0.2-0.8-0.3-1.2c0.3,0,0.6-0.1,0.9-0.1c0,0.1,0.1,0.2,0.1,0.2l-0.2,0.1
					C202.2,47.3,202.2,47.4,202.2,47.5z M201.9,48.5c0.1,0.1,0.3,0.1,0.3,0.1c0,0.1-0.1,0.1-0.3,0.1c-0.1,0-0.2-0.1-0.3-0.1l0-0.1
					C201.8,48.4,201.9,48.4,201.9,48.5z M202.7,46.9c0.2,0,0.4-0.1,0.5-0.1c0.1,0,0.2,0.1,0.2,0.1c-0.3,0.2-0.3,0.1-0.5,0.1
					C202.8,46.9,202.7,46.9,202.7,46.9z M204.2,51c-0.2,0-0.4,0.1-0.5,0.1l-0.2-0.1c0.2-0.1,0.5-0.2,0.6-0.1
					C204.1,51,204.1,51,204.2,51z M203.6,51.3c0.1,0.1,0.2,0.3,0.3,0.2c0-0.1,0.1-0.2,0-0.3c0.2,0,0.3-0.1,0.5-0.1
					c0.1,0,0.2,0,0.2,0c0,0,0.2,0,0.3,0.1c0.1,0,0.1,0.1,0.1,0.2c0,0.1,0,0.1,0.2,0.2c0,0,0,0.1-0.1,0.1c-0.1,0.1-0.1,0.1-0.2,0
					c0,0.1,0.1,0.1,0.2,0.1c0.1,0,0.2-0.1,0.3,0c0.1,0,0.1,0,0.2,0c0.3,0.9,0.6,1.9,0.9,2.9c-1.1,0.3-2.3,0.6-3.6,0.8
					c-0.2-1.4-0.4-2.7-0.6-4C202.8,51.5,203.2,51.4,203.6,51.3z M202.5,43.1c-0.1,0-0.2,0.1-0.2,0.2c0,0-0.1,0-0.1,0.1
					c-0.1,0-0.2,0.1-0.3,0.2c-0.1-0.1-0.1-0.2-0.2-0.2v0c-0.1-0.1-0.2-0.2-0.3-0.3c0.3-0.1,0.6-0.2,0.8-0.3l0.1,0.1
					C202.4,42.8,202.5,43,202.5,43.1z M201.5,43.4c0.1,0.1,0.2,0.2,0.2,0.3c0,0.1-0.1,0.2-0.1,0.2c0,0-0.1,0.1,0,0.2
					c0,0.1,0,0.5,0,0.5s0,0.1-0.1,0.2c-0.1,0-0.2,0.1-0.2,0.1c0,0.1,0.1,0.2,0.1,0.2c0.1,0,0.2,0.1,0.2,0.2c0.1,0.1,0.1,0.1,0.1,0
					c0-0.1,0.1-0.2,0.1-0.2l0.1-0.2c0.1,0,0.2,0,0.2,0c0,0.1,0,0.3,0,0.3c0,0,0,0.1,0,0.1c0,0-0.2,0.1-0.2,0.1
					c0,0.1,0.1,0.3,0.1,0.3c0,0.1,0.1,0.2,0.1,0.2c0.1,0.1,0.3,0.2,0.3,0.1c0.1-0.2,0.2-0.2,0.2-0.2c0,0,0.1-0.1,0.2-0.2
					c0,0,0,0,0,0c0.1,0.2,0.2,0.3,0.3,0.5c-0.1,0-0.2,0.1-0.2,0.1c0,0.1,0,0.2,0.1,0.3l-0.1,0c-0.2,0-0.3,0.1-0.5,0.1
					c0,0-0.1-0.1-0.1-0.1c-0.1,0-0.1,0.1-0.1,0.2c-0.3,0.1-0.6,0.1-0.9,0.1c-0.2-0.6-0.3-1.1-0.5-1.6c-0.2-0.7-0.5-1.3-0.7-1.8
					c0-0.1,0-0.1,0-0.2c0.4,0,0.7-0.1,1-0.2C201.3,43.2,201.4,43.3,201.5,43.4z M198.9,47.2L198.9,47.2L198.9,47.2L198.9,47.2
					L198.9,47.2c0.4,0,0.8,0,1.1,0c0.4,0,0.7-0.1,1.1-0.1c0.1,0.3,0.2,0.6,0.2,1l0.1,0.3l0,0l0,0l0,0.1c0,0-0.1,0.1-0.1,0.1
					c-0.1,0.1-0.1,0.2-0.1,0.3c0,0.1,0.1,0.4,0.2,0.4c0.1,0,0.1,0,0.2,0l0.1,0.3l0,0c-0.1-0.1-0.4-0.2-0.4-0.2
					c0.1,0.1,0.2,0.3,0.2,0.3c0,0.1,0.1,0.2,0.1,0.2c-0.3-0.1-0.3-0.1-0.4,0L201,50c0,0,0,0.1-0.1,0.2c0,0.1-0.1,0.2-0.1,0.3
					c0.1,0.1,0.2,0.1,0.2,0.4c0,0,0.7-0.2,0.8-0.3c0,0,0.1,0,0.1-0.1c0.1,0.3,0.1,0.6,0.2,0.8l0,0c-0.6,0.1-1.2,0.1-1.8,0.2
					c-0.2,0-0.3,0-0.5,0c-0.3,0-0.5,0-0.8,0h0l0,0h0h0l0,0h0l0,0l0-0.3v0L198.9,47.2L198.9,47.2z M198.9,51.7L198.9,51.7L198.9,51.7
					L198.9,51.7c0.5,0,0.9,0,1.3,0c0.6,0,1.3-0.1,1.9-0.2c0.1,0.4,0.1,0.8,0.2,1.3c0.1,0.9,0.3,1.8,0.4,2.7
					c-1.2,0.2-2.5,0.3-3.9,0.3L198.9,51.7L198.9,51.7z M198.9,56L198.9,56L198.9,56c1.4,0,2.6-0.1,3.9-0.3c0.2,1.6,0.4,3.3,0.5,4.9
					l0,0c-0.9,0.1-1.7,0.2-2.6,0.2c-0.3,0-0.6,0-0.9,0c-0.2,0-0.5,0-0.8,0h0h0h0l0,0h0l0,0h0l0-4.6v0L198.9,56L198.9,56z M203,55.7
					c1.3-0.2,2.5-0.4,3.6-0.8c0.1,0.5,0.2,0.9,0.3,1.4c0.2,0.8,0.3,1.5,0.5,2.3l0,0l0,0c-0.1,0-0.1,0.1-0.2,0.1c-0.1,0-0.2,0-0.2,0
					c-0.1,0-0.2,0.1-0.3,0.1c-0.1,0-0.1,0-0.2,0.1c0,0.1,0,0.1-0.1,0.2c-0.1,0-0.2,0.1-0.2,0.2c0,0.1,0,0.1,0.1,0.1
					c0.1,0,0.3-0.1,0.4,0c0.2,0,0.2,0,0.3,0c0.1,0,0.1,0.1,0.2,0c0.1-0.1,0.1-0.1,0.1-0.1c0.2-0.1,0.2-0.1,0.3,0l0,0
					c0,0.2,0.1,0.4,0.1,0.6c-0.1,0-0.3,0.1-0.4,0.1c-1.2,0.3-2.4,0.5-3.7,0.7C203.3,59,203.2,57.4,203,55.7z M207.4,58.9l0,0.2l0,0
					c0,0-0.1,0-0.1-0.1C207.4,59,207.4,58.9,207.4,58.9z M206.1,45.3c-0.1,0-0.1,0.1-0.2,0.1c-0.1,0.1-0.3,0.2-0.4,0.2
					c-0.1-0.1-0.2-0.3-0.3-0.4c-0.1-0.1-0.3-0.3-0.4-0.4c0,0,0,0,0,0c0,0-0.2-0.2-0.2-0.2l-0.2-0.2c0,0,0,0-0.1-0.1l-0.2-0.2
					c0.1,0,0.2-0.1,0.2,0c0.1,0.1,0.3,0.2,0.3,0.2c0,0.2,0.1,0.3,0.1,0.3c0.2-0.1,0.2-0.1,0.3,0c0.1,0.1,0.3,0.1,0.3,0.1
					s0.2,0.1,0.3,0.2c0.2,0,0.4,0,0.4,0c0.1,0.1,0.1,0.2,0.2,0.3L206.1,45.3z M206.1,41.2c-0.1,0-0.1-0.1-0.3,0c0,0-0.1,0.1-0.2,0.1
					c-0.1,0-0.3-0.1-0.4-0.1c-0.5-0.2-1-0.3-1.5-0.4c0-0.1,0-0.3-0.1-0.4l0.1,0c0.6,0.1,1.3,0.2,2,0.4c0,0,0,0.1,0.1,0.1
					C205.9,41,206.1,41.2,206.1,41.2L206.1,41.2z M203.6,40.2c-0.1-0.1-0.2-0.3-0.3-0.4l0.1,0c0.5,0,0.9,0,1.4,0.1
					c0,0,0.1,0.1,0.1,0.1c0.1,0,0.3,0.1,0.3,0.2c0,0.1,0.2,0.3,0.3,0.5c0,0,0.1,0.1,0.1,0.1L203.6,40.2z M193.7,65.4
					c-1.4-0.2-2.7-0.5-3.9-0.8c-0.2,0-0.3-0.1-0.4-0.1l0.1-1.6c0-0.5,0.1-0.9,0.1-1.4c0.1-0.1,0.2-0.1,0.2-0.2
					c0.1-0.1,0.5-0.3,0.5-0.3c0.1,0,0-0.1,0-0.2c0-0.1,0-0.2,0-0.2c0.2-0.1,0.2-0.2,0.3-0.3l0,0c1,0.3,2.1,0.5,3.3,0.6
					c0,0.5-0.1,1.1-0.1,1.6C193.8,63.4,193.7,64.4,193.7,65.4z M193.8,69.3c-1.3-0.2-2.6-0.5-3.7-0.8c-0.2,0-0.3-0.1-0.5-0.1l0-0.2
					c-0.2-1.1-0.2-2.3-0.2-3.5c1.4,0.4,2.8,0.7,4.3,0.9C193.7,66.9,193.7,68.1,193.8,69.3z M189.3,62.8l-0.2,1.6
					c-0.4-0.1-0.7-0.2-1.1-0.3c-0.8-0.3-1.6-0.6-2.3-0.9l-0.2-0.1l0-0.2c0-0.5,0-1.1,0.1-1.6c0.2,0.2,0.5,0.6,0.6,0.6
					c0.2-0.1,0.3,0,0.4,0.1c0.2,0.2,0.3,0.3,0.4,0.2c0.1,0,0.2,0.1,0.3,0.2c0.1,0.1,0.1,0.1,0.3,0.1c0.1,0,0.5,0,0.6-0.1
					c0.1-0.1,0.4-0.3,0.5-0.3c0.1,0,0.4-0.1,0.4-0.1c0.1-0.2,0.1-0.3,0.2-0.4l0.1,0L189.3,62.8z M189.7,54.9
					c0.1-0.2,0.1-0.3,0.1-0.4c0.3,0.1,0.6,0.2,1,0.3c-0.1,0.4-0.2,0.9-0.3,1.3c0-0.1-0.1-0.2-0.1-0.3c-0.1-0.2-0.4-0.5-0.4-0.5
					L189.7,54.9z M190.6,59.9c0-0.1-0.1-0.1-0.1-0.2c0.1-0.3,0.1-0.6,0-0.9c0.2-0.4,0.3-0.6,0.4-0.7c-0.2-0.8-0.1-0.8-0.2-1
					c-0.1-0.1-0.1-0.5-0.1-0.7l0.1-0.2c0.1-0.5,0.2-0.9,0.4-1.4c1.1,0.3,2.3,0.6,3.6,0.8c-0.2,1.6-0.4,3.3-0.6,4.9
					C192.8,60.4,191.6,60.2,190.6,59.9z M191,54.7c0.3-1.2,0.7-2.3,1.1-3.4l0.1-0.4c0.5,0.2,1.1,0.3,1.6,0.4
					c0.4,0.1,0.9,0.2,1.3,0.2c-0.2,1.3-0.5,2.6-0.7,4C193.3,55.3,192.1,55,191,54.7z M190.5,45.5c0-0.1,0.4-0.3,0.5-0.4
					c0.1,0,0.1,0.1,0.2,0.1l0.2,0.1l0,0c-0.1,0.2,0,0.2,0.2,0.1c0.2,0.1,0.3,0.2,0.5,0.3c-0.3,0.3-0.5,0.6-0.8,1
					c-0.1,0.2-0.3,0.4-0.4,0.6l0,0c0,0,0,0.1,0,0.1c-0.1,0.1-0.2,0.2-0.3,0.4c0,0,0-0.1-0.1-0.1c-0.1-0.2-0.1-0.5,0-0.7
					c0-0.2,0-0.2-0.2-0.3c0,0,0.1-0.4,0.2-0.5c0-0.1,0.3-0.3,0.4-0.4c0.1-0.1,0.1-0.2,0-0.4l-0.2,0.3c0,0,0,0-0.1,0
					c-0.1,0-0.1,0-0.1,0.2c0,0.1-0.1,0.2-0.2,0.3c0,0-0.2,0-0.3-0.1c-0.1-0.1-0.2,0-0.4,0l0.4-0.4c0,0.1,0,0.1,0.1,0.2
					c0.1,0.1-0.1,0.1,0,0.2C190.2,45.9,190.4,45.6,190.5,45.5z M191.1,44.9c0,0,0.1-0.1,0.2-0.1c0.1,0,0.1,0,0.1,0.1
					c0,0,0,0.1,0,0.1C191.3,45,191.2,45,191.1,44.9z M193.3,42.3c0-0.1,0-0.3,0-0.4c0.1-0.1,0.3-0.1,0.4-0.2
					c0.2-0.1,0.3-0.1,0.5-0.2c0,0.1,0.1,0.1,0.1,0.2c0.1,0.1,0.1,0.2,0.2,0.2l-0.6,0.3c-0.3,0.2-0.5,0.3-0.8,0.5
					c0.1-0.1,0.1-0.2,0.1-0.3C193.3,42.4,193.4,42.5,193.3,42.3z M193.7,42.7c0.3-0.2,0.7-0.4,1-0.6c0.2,0.1,0.4,0.3,0.6,0.4
					l-0.7,0.6c-0.7,0.7-1.4,1.4-2.1,2.1c-0.1,0.1-0.2,0.2-0.3,0.4c-0.1-0.1-0.3-0.2-0.4-0.2c0.1-0.1,0.2-0.2,0.4-0.3
					c0.2-0.2,0.4-1,0.4-1.1c0-0.2,0.1-0.4,0.2-0.5c0,0,0.1-0.1,0.1-0.1C193.1,43,193.4,42.9,193.7,42.7z M192.5,45.8l-0.2-0.1
					l0.4-0.5c0.5-0.6,1.1-1.2,1.7-1.7c0.3-0.3,0.7-0.6,1-0.9c0.2,0.1,0.5,0.2,0.8,0.3c-0.1,0.1-0.2,0.2-0.3,0.3
					c-0.2,0.2-0.4,0.5-0.5,0.7c-0.3,0.4-0.5,0.8-0.8,1.2c-0.2,0.4-0.4,0.7-0.6,1.1c-0.3-0.1-0.6-0.2-0.8-0.3
					C193,46,192.8,45.9,192.5,45.8z M192.6,46l0,0.2c-0.1,0-0.1-0.1-0.3-0.1c-0.1,0-0.2,0.3-0.1,0.5l-0.2,0c0,0-0.2,0-0.3,0.1
					c-0.1,0.1-0.2,0.1-0.2,0.1c-0.1,0.1-0.1,0.1-0.2,0.1l0.1-0.2c0.3-0.3,0.5-0.7,0.8-1C192.4,45.9,192.5,46,192.6,46z M191.1,47.3
					L191.1,47.3C191.1,47.3,191.1,47.3,191.1,47.3L191.1,47.3z M190.1,49.1c0.1,0,0.3,0,0.3-0.2c0.3,0,0.4,0,0.4,0
					c0.2-0.1,0.2-0.1,0.2-0.2c-0.1-0.1-0.4-0.2-0.4-0.2c0.2-0.2,0.2-0.3,0.2-0.3s-0.2-0.1-0.3-0.1c0,0,0,0-0.1,0
					c0.1-0.1,0.2-0.2,0.2-0.4c0,0,0.1,0,0.1,0.1c0.1,0,0.2,0.2,0.2,0.2c0,0.1,0.1,0.1,0.2,0.2c0.1,0,0.1,0.1,0.2,0.1
					c-0.1-0.1,0-0.1,0-0.2c0-0.1-0.1-0.2,0-0.2c0.1,0,0.1-0.1,0.1-0.1c0,0,0.1,0.1,0.1,0.1c0.1,0,0.1-0.1,0-0.2
					c-0.1-0.1-0.1-0.2-0.1-0.3c0-0.1,0-0.1,0.1-0.2c0-0.1,0.2-0.1,0.2-0.2c0,0,0-0.1,0-0.2c0.2-0.1,0.3,0,0.3,0c0.1,0,0.1,0,0.2-0.1
					c0-0.1,0.2-0.3,0.3-0.4c0-0.1,0.1-0.3,0.1-0.3l-0.2-0.2c0.4,0.2,0.9,0.3,1.3,0.5l-1.8,4.1c-0.3-0.1-0.7-0.2-1-0.3
					c-0.4-0.2-0.9-0.3-1.3-0.5C190,49.5,190.1,49.2,190.1,49.1z M195.1,51.2c-0.8-0.1-1.6-0.3-2.3-0.5c-0.1,0-0.3-0.1-0.4-0.1
					c0.6-1.5,1.2-2.9,1.8-4.1c0.7,0.2,1.4,0.3,2.1,0.5c-0.3,1.2-0.7,2.7-1,4.2L195.1,51.2z M194.7,46.5c-0.2,0-0.3-0.1-0.5-0.1
					c0.2-0.4,0.4-0.8,0.7-1.2L195,45l0,0c0,0.1,0.1,0.2,0.2,0.2c0.1,0,0.2,0.1,0.3,0.2c0.1,0.1,0.2,0.1,0.4,0.1
					c0.2,0,0.1-0.2,0.1-0.2c0.2,0,0.3-0.2,0.4-0.2c0,0,0,0,0-0.2c0-0.2-0.2-0.1-0.3,0c-0.1,0.1-0.2-0.1-0.6-0.2c0-0.2-0.1-0.1-0.3,0
					l0.1-0.1c0.3-0.4,0.6-0.8,0.8-1.2c0.1-0.1,0.2-0.3,0.3-0.4c0.2,0.1,0.4,0.1,0.7,0.2c0,0,0.1,0,0.1,0c0.1,0.1,0.1,0.1,0,0.2
					c-0.1,0.1-0.2,0.1-0.3,0.2c-0.1,0-0.1,0.1-0.1,0.2c-0.1,0.1,0.1,0,0.2,0c0.1,0,0.3,0,0.3-0.1c0-0.1,0.1-0.1,0.2-0.1
					c-0.1,0.1-0.1,0.3-0.2,0.4c-0.1,0-0.2-0.1-0.3-0.1c-0.1-0.1-0.2,0-0.1,0.1c0,0,0.2,0.2,0.3,0.3c-0.1,0.3-0.2,0.5-0.3,0.8
					c-0.2,0.5-0.3,1-0.5,1.6C195.7,46.8,195.2,46.6,194.7,46.5z M196.5,46.8c0.2-0.6,0.3-1.2,0.5-1.7c0.1-0.2,0.2-0.4,0.2-0.7
					c0.1,0.1,0.2,0.2,0.3,0.2c0.1,0.1,0.2,0.2,0.3,0.3c0.1,0.1,0.2,0.2,0.3,0.3c0.1,0.1,0.2,0.1,0.3,0.3c0,0.1,0.2,0.3,0.3,0.4l0,1
					l0,0h0h0h0l0,0h0c-0.3,0-0.5,0-0.8,0l-0.3,0C197.2,46.9,196.9,46.9,196.5,46.8L196.5,46.8z M194.2,40
					C194.2,40,194.1,40,194.2,40c-0.3,0.1-0.6,0.2-0.7,0.2c-0.1,0-0.2,0-0.4,0.1c0,0,0,0-0.1,0.1l-0.4,0.1c0.1-0.1,0.2-0.1,0.2-0.2
					c0,0,0.3-0.2,0.4-0.3c0-0.1,0.2-0.2,0.4-0.3c0.2,0,0.4,0,0.7,0l0.1,0C194.3,39.8,194.3,39.9,194.2,40z M193.4,40.4
					c0.1,0.1,0.1,0.1,0.2,0c0,0,0.1,0,0.1-0.1c0.1,0,0.2,0,0.3,0l0.1,0c-0.1,0.1-0.1,0.3-0.1,0.4c-0.4,0.1-0.9,0.2-1.5,0.4l-0.2,0
					c0,0,0-0.1-0.1-0.1c-0.1-0.1-0.2,0.1-0.4,0.1c-0.1,0,0-0.2,0.1-0.2c0.1,0,0.2-0.2,0.3-0.3l0.2-0.2
					C192.8,40.5,193.1,40.4,193.4,40.4z M193.9,40.9L193.9,40.9c0.1,0.1,0.1,0.3,0.2,0.4l-0.7,0.3c0-0.1-0.1-0.1-0.2,0
					c-0.2,0.1-0.2,0.1-0.2,0c0,0-0.4-0.1-0.6-0.2c-0.2-0.1-0.3,0-0.4,0.1c-0.1,0.1-0.1,0.1-0.2,0.2c0,0.1,0.2,0.1,0.4,0.2
					c-0.2,0-0.6,0.1-0.8,0.2l-0.3-0.1c0,0,0.2-0.1,0.2-0.1c0.1,0,0.3-0.3,0.4-0.4c0,0,0.1-0.1,0.1-0.1
					C192.5,41.2,193.3,41,193.9,40.9z M191.1,43.6c0.2-0.2,0.3-0.3,0.5-0.6c0.2-0.3,0.2-0.2,0.4-0.3c0.2,0.2-0.2,0.3-0.3,0.4
					c-0.1,0.1-0.1,0.3-0.2,0.5c0,0-0.4,0.3-0.5,0.5c0,0-0.2,0-0.4,0.1c-0.1,0-0.1,0.1-0.1,0.2l-0.1-0.1c-0.1-0.1-0.2-0.2-0.3-0.4
					l0.1,0c0.1-0.1-0.1-0.4-0.2-0.4c0,0,0,0,0-0.1c0.1-0.1,0.2-0.1,0.4-0.2c0,0,0,0.1,0,0.2c0,0.1,0,0.1,0,0.4c0,0,0.1,0,0.2,0
					C190.8,43.9,190.9,43.8,191.1,43.6z M189.3,52.3c0,0,0,0.1,0.1,0.2c0,0,0.3-0.1,0.4-0.2c0.1-0.1,0.4,0.1,0.5,0.2
					c0,0,0.1-0.3,0.1-0.4c0-0.1,0.1-0.1,0.2-0.1c0.1,0,0.1-0.1,0.1-0.2c0-0.1,0.2-0.6,0.2-0.7c0-0.1,0.1-0.2,0.2-0.3
					c0.1-0.1-0.1-0.4-0.1-0.4s-0.1-0.1-0.1-0.1c-0.1,0-0.2-0.1-0.4-0.1c-0.4-0.1-0.6-0.3-0.7-0.2l0-0.1c0.7,0.3,1.4,0.6,2.3,0.9
					l-0.2,0.5c-0.4,1.1-0.8,2.2-1.1,3.3c-0.3-0.1-0.7-0.2-1-0.4c0-0.1,0-0.2,0-0.2c0-0.1,0-0.2-0.1-0.3c-0.1-0.1-0.3-0.3-0.2-0.5
					c0-0.3,0-0.5-0.2-0.5c-0.2,0-0.3,0-0.5-0.1c-0.2-0.1-0.3-0.2-0.3-0.4l0-0.1l0.3-0.7c0,0,0,0,0,0.1c0,0.1,0,0.4,0.1,0.5
					c0,0,0.1,0.1,0.3,0.2C189.4,52.2,189.3,52.3,189.3,52.3z M189.2,64.6l0.2,3.6l0,0.2c-0.2-0.1-0.4-0.1-0.5-0.2
					c-0.2-0.1-0.3-0.1-0.5-0.2c-0.3-0.1-0.6-0.2-0.8-0.3c-0.5-0.2-0.9-0.4-1.3-0.6l-0.3-0.1c0-0.2-0.1-0.4-0.1-0.5
					c-0.2-1-0.3-2.1-0.3-3.2C186.7,63.7,187.9,64.2,189.2,64.6z M186.3,68.1c-0.1-0.3-0.2-0.6-0.3-0.9c0.5,0.2,0.9,0.4,1.5,0.6
					c0.2,0.1,0.5,0.2,0.8,0.3c0.4,0.1,0.8,0.3,1.2,0.4c0.1,0.4,0.2,0.8,0.3,1.1c0.2,0.6,0.4,1.2,0.6,1.7l-0.2-0.1
					c-0.3-0.1-0.5-0.2-0.8-0.3c-0.6-0.2-1.3-0.5-1.8-0.8c-0.1-0.1-0.2-0.1-0.3-0.2C186.8,69.5,186.5,68.8,186.3,68.1z M189.8,69.2
					c0-0.2-0.1-0.4-0.1-0.6c1.3,0.4,2.7,0.7,4.2,0.9c0.1,1,0.2,2,0.4,2.8c-1.1-0.2-2.2-0.4-3.2-0.7c-0.2,0-0.4-0.1-0.5-0.1
					C190.2,70.8,190,70,189.8,69.2z M194.1,72.4l0.2,0c0.2,0.7,0.4,1.3,0.7,1.7c-0.5-0.1-1.1-0.2-1.6-0.3c-0.2,0-0.4-0.1-0.6-0.1
					c-0.2-0.1-0.5-0.1-0.7-0.2c-0.4-0.3-0.7-0.7-1-1.1c-0.2-0.2-0.3-0.5-0.5-0.8C191.8,72,192.9,72.3,194.1,72.4z M194.6,72.8
					c0-0.1-0.1-0.2-0.1-0.3c0.5,0.1,1.1,0.1,1.6,0.2c0.7,0.1,1.5,0.1,2.2,0.1h0l0,0h0l0,1.7h0h0h0h0h0h0l0,0c-0.3,0-0.5,0-0.8,0
					c-0.5,0-1-0.1-1.5-0.1c-0.3,0-0.5-0.1-0.8-0.1l0,0C195,73.8,194.8,73.4,194.6,72.8z M198.5,72.6L198.5,72.6L198.5,72.6
					L198.5,72.6L198.5,72.6L198.5,72.6L198.5,72.6c-0.3,0-0.6,0-0.8,0c-0.5,0-1,0-1.5-0.1c-0.2,0-0.3,0-0.5,0
					c-0.4,0-0.8-0.1-1.2-0.1l0,0c-0.2-0.6-0.3-1.4-0.4-2.2c0-0.2,0-0.4-0.1-0.6c0.8,0.1,1.5,0.2,2.3,0.2c0.3,0,0.5,0,0.8,0l0,0
					c0,0.1,0.1,0.2,0,0.4c0,0,0.1,0.1,0.1,0.2c0.1,0.1,0.2,0.3,0.3,0.4c0.1,0.1,0.1,0.1,0.1,0.2c0.1,0.1,0.1,0,0.1,0.2
					c0.1,0,0.2,0.1,0.3,0.2c0,0,0.2,0.1,0.2,0c0,0,0.1,0,0.1,0l0,1.1v0L198.5,72.6L198.5,72.6z M198.4,66.4c-0.2,0-0.4,0-0.6,0.1
					c-0.1,0.1-0.2,0.1-0.3,0c-0.1,0-0.2,0-0.3,0.1c-0.1,0.1-0.5,0.3-0.6,0.3c-0.1,0.1-0.2,0.1-0.3,0.1c-0.1,0-0.3,0-0.3,0
					c0,0-0.2,0.2-0.2,0.5c0,0.3,0.1,0.5,0.1,0.5c0,0.1,0.3,0.3,0.4,0.4c0.1,0.1,0.2,0.2,0.3,0.3c0.1,0.1,0.1,0.1,0.2,0.2
					c0,0.1,0.2,0.2,0.4,0.3c0,0,0,0.1,0.1,0.2c0,0.1,0,0.1,0,0.2c-0.3,0-0.5,0-0.8,0c-0.8-0.1-1.6-0.1-2.3-0.2l0,0
					c-0.1-0.9-0.1-1.9-0.1-2.9c0-0.3,0-0.5,0-0.8c0.9,0.1,1.7,0.2,2.6,0.3c0.6,0,1.3,0.1,1.9,0.1h0l0,0h0l0,0.5
					C198.5,66.4,198.5,66.4,198.4,66.4z M198.6,65.7L198.6,65.7L198.6,65.7L198.6,65.7L198.6,65.7L198.6,65.7L198.6,65.7
					c-0.3,0-0.6,0-0.8,0c-0.4,0-0.8,0-1.2-0.1c-0.9-0.1-1.8-0.1-2.6-0.3v0c0-1,0.1-1.9,0.1-3l0-0.5c0-0.4,0.1-0.7,0.1-1.1
					c0.9,0.1,1.7,0.2,2.7,0.3c0.6,0,1.1,0.1,1.7,0.1h0l0,0l0,0h0l0,1.6v0l0,2.2L198.6,65.7L198.6,65.7z M198.6,61L198.6,61L198.6,61
					L198.6,61L198.6,61L198.6,61L198.6,61c-0.3,0-0.6,0-0.8,0c-0.3,0-0.6,0-0.9,0c-0.9-0.1-1.8-0.1-2.6-0.3l0,0
					c0.1-1.6,0.3-3.3,0.6-4.9c1.2,0.2,2.5,0.3,3.8,0.3v0l0,0h0l0,0.3v0L198.6,61L198.6,61z M194.8,55.5c0.1-0.9,0.3-1.8,0.4-2.7
					c0.1-0.4,0.2-0.9,0.2-1.3c0.6,0.1,1.2,0.1,1.9,0.2c0.4,0,0.9,0,1.3,0l0,0h0l0,0h0l0,4.1C197.3,55.8,196,55.7,194.8,55.5z
					 M198.7,51.5L198.7,51.5L198.7,51.5L198.7,51.5L198.7,51.5L198.7,51.5L198.7,51.5c-0.3,0-0.6,0-0.9,0c-0.2,0-0.3,0-0.5,0
					c-0.6,0-1.2-0.1-1.8-0.2l0,0c0.2-1.2,0.5-2.3,0.7-3.3c0.1-0.3,0.2-0.7,0.3-1c0.4,0,0.7,0.1,1.1,0.1c0.4,0,0.7,0,1.1,0h0l0,0h0h0
					h0v0l0,4v0L198.7,51.5L198.7,51.5z M198.7,72.8L198.7,72.8L198.7,72.8L198.7,72.8c0.7,0,1.3,0,1.9,0c0,0,0.1,0,0.1,0.1
					c0.1,0,0.1,0,0.1,0.1c0.1,0,0.1,0.1,0.1,0.1c0,0,0.1,0.1,0.2,0.1c0.1,0,0.3,0.1,0.4,0.2c0.1,0.1,0.3,0,0.4,0
					c0,0,0.2-0.1,0.2-0.1c0,0,0.2,0,0.2-0.1c0,0,0.1,0,0.1,0l0,0.1c0,0,0,0-0.1,0c0,0-0.1,0.2-0.2,0.2c-0.1,0-0.1,0.1-0.1,0.1
					c0,0,0.1,0.1,0.2,0.1c-0.1,0.2-0.2,0.4-0.3,0.6l0,0c-0.3,0-0.5,0.1-0.8,0.1c-0.5,0-1,0.1-1.5,0.1c-0.3,0-0.5,0-0.8,0l0,0l0,0h0
					h0h0h0h0L198.7,72.8z M202.5,73.7c0.1,0,0.1,0,0.1,0c0.1,0,0.3,0,0.4,0c0,0,0.1,0,0.2,0c0.1,0,0.1,0,0.2,0c0,0,0,0.1,0,0.1
					c0,0,0,0.1-0.1,0.2c0,0,0,0.1,0.1,0.1c0,0,0.1,0,0.2,0c0,0,0.1,0.1,0.1,0c0,0,0,0,0,0c-0.5,0.1-1,0.2-1.5,0.2
					C202.3,74.1,202.4,73.9,202.5,73.7z M206.3,71.9l0.3-0.1c-0.1,0.3-0.3,0.5-0.5,0.7l0,0c0,0,0-0.1,0-0.1
					C206,72.5,206.2,72.1,206.3,71.9z M206.4,71.7c0-0.1,0.1-0.3,0-0.3c0-0.1,0-0.3,0-0.5c0-0.2,0.1-0.3,0-0.4
					c-0.1-0.1,0-0.2,0.1-0.4c0-0.2,0.1-0.2,0.2-0.3c0.1-0.1,0.1-0.2,0.2-0.3c0-0.1,0.2-0.2,0.3-0.2c0.1,0,0.2-0.1,0.3-0.2
					c0-0.1,0.1-0.1,0.1-0.1c0,0.2-0.1,0.3-0.1,0.5c-0.2,0.8-0.5,1.5-0.8,2.2L206.4,71.7z M207.6,69.8c0.1-0.3,0.2-0.7,0.3-1
					c0.1,0,0.1-0.1,0.2-0.2c0.4-0.1,0.7-0.2,1.1-0.3c0.3-0.1,0.5-0.2,0.8-0.3c0.5-0.2,1-0.4,1.5-0.6c-0.1,0.3-0.2,0.6-0.3,0.9
					c-0.2,0.7-0.6,1.4-0.9,2c-0.1,0.1-0.2,0.1-0.3,0.2c-0.6,0.3-1.2,0.5-1.8,0.7c-0.3,0.1-0.5,0.2-0.8,0.2l-0.2,0.1
					C207.2,71,207.4,70.4,207.6,69.8z M214.4,65.4c0.3-0.3,0.6-0.6,0.9-0.9c-0.5,1.1-1.1,2.1-1.8,3
					C213.8,66.9,214.2,66.2,214.4,65.4z M215.6,63.8c-0.3,0.4-0.6,0.8-0.9,1.1c-0.1,0.1-0.1,0.1-0.2,0.2l0.6-3.8
					c0.7-0.6,1.3-1.2,1.7-1.9c0,0.4,0,0.7-0.1,1.1C216.4,61.6,216.1,62.7,215.6,63.8z M217.1,56.8c0,0.6,0,1.2-0.1,1.7
					c0,0,0,0,0,0.1l0,0.1l-0.6-4c0.2-0.4,0.4-0.8,0.5-1.2C216.9,54.5,217.1,55.6,217.1,56.8z M216.3,54.2c0,0.1-0.1,0.1-0.1,0.2
					c-0.3-0.9-0.6-1.8-1.1-2.7l-0.1-0.1c-0.2-0.4-0.4-0.9-0.7-1.3c-0.1-0.2-0.1-0.4-0.2-0.7l0-0.1c0.2-0.5,0.3-1,0.3-1.5v-0.1
					c0.5,0.6,0.9,1.4,1.3,2.1c0.4,0.9,0.7,1.9,0.9,2.9C216.6,53.3,216.5,53.8,216.3,54.2z M215,48.4c-0.2-0.3-0.4-0.6-0.6-0.9
					c0-0.1,0-0.2,0-0.2C214.6,47.6,214.8,48,215,48.4z M214.2,47.2c-0.5-0.6-1-1.2-1.6-1.7l-0.1-0.1l-0.2-0.2c0-0.3-0.1-0.6-0.1-0.9
					c0.7,0.8,1.4,1.6,2,2.5C214.1,46.9,214.1,47,214.2,47.2z M209.4,41.9L209.4,41.9c-0.3-0.1-0.5-0.3-0.8-0.4
					c-0.1-0.1-0.4-0.3-0.5-0.4c0,0,0,0,0.1,0C208.6,41.3,209,41.6,209.4,41.9z M204.9,39.6c-0.6-0.1-1.2-0.1-1.8-0.1
					c-0.1-0.1-0.3-0.2-0.5-0.4c0.1,0,0.3,0,0.4,0c0.3,0,0.5,0,0.7,0C204.2,39.3,204.6,39.4,204.9,39.6
					C204.9,39.6,204.9,39.6,204.9,39.6z M193.5,39.2C193.5,39.3,193.5,39.3,193.5,39.2c-0.1,0.2-0.1,0.2,0.3,0.2
					c0.4,0,0.2,0,0.3-0.1c0.1-0.1,0-0.1,0.3-0.1c0.1,0,0.2,0,0.2-0.1l0.2,0c0.1,0,0.3,0,0.4,0c-0.2,0.1-0.4,0.2-0.5,0.4
					c-0.1,0-0.2,0-0.4,0c0,0,0-0.1,0-0.1l-0.3,0.1c-0.5,0-1,0-1.4,0.1c0,0,0.1-0.1,0.1-0.1c0,0,0,0,0,0
					C193,39.4,193.2,39.3,193.5,39.2z M186.5,44.9c0,0.3,0,0.5-0.1,0.6c-0.1,0.1,0,0.2-0.2,0.2c-0.1,0-0.1,0-0.2,0.1
					c0,0.1-0.2,0.2,0,0.2c0.2,0,0.3-0.2,0.3-0.2c0.1,0.1,0.2,0,0.3,0c0,0.1,0,0.2,0,0.2l-0.6,0.5c0-0.1-0.1-0.1-0.1-0.2
					c-0.1-0.2-0.2-0.5-0.2-0.7c0.2,0,0.3,0,0.3,0C186.2,45.2,186.5,44.9,186.5,44.9z M186.3,46.5c0,0.1-0.1,0.1-0.1,0.2
					c0,0,0,0.1,0,0.1l0,0l0-0.1L186.3,46.5z M185.9,46.6c-0.2,0.2-0.3,0.4-0.5,0.5c0,0,0-0.1,0-0.1c0-0.1,0-0.4,0-0.4l0-0.2
					c-0.2,0.1-0.2,0-0.2,0c0,0-0.1-0.1-0.1-0.1c0.1-0.3,0.1-0.5,0.1-0.6c0.2-0.2,0.1-0.3,0.4-0.2l0.1,0
					C185.6,45.9,185.7,46.3,185.9,46.6z M185.2,48.5c0.1-0.1,0.2-0.3,0.3-0.4c0.1-0.1,0.1-0.1,0.1-0.1c-0.1-0.2-0.1-0.5-0.1-0.6l0,0
					c0.1,0,0.2,0,0.1-0.1c0.2-0.2,0.3-0.3,0.5-0.5c0,0,0.1,0.1,0.1,0.1c-0.1,0.2-0.3,0.4-0.3,0.4c-0.1,0.1-0.3,0-0.2,0.1
					c0,0.1-0.1,0.5,0,0.4c0.1,0,0.3,0.1,0.3,0.2c-0.1,0.1-0.3,0.4-0.2,0.5l0,0.1c-0.1,0-0.2-0.1-0.3,0c-0.1,0.1-0.1,0.2,0,0.1
					c0.1,0,0.2,0.1,0.1,0.1c-0.1,0-0.2-0.1-0.3,0.1c-0.1,0.2-0.1,0.3,0,0.3c0.1,0,0.3-0.2,0.4-0.2c0-0.1,0-0.2,0-0.2
					c0.1,0.1,0.1,0.1,0.2,0c0.1-0.1,0.3-0.2,0.4-0.2c0.1-0.1,0.2-0.1,0.2-0.2c0.1-0.1,0.1-0.2,0.1-0.2c0.2,0,0.4-0.1,0.7-0.1l0,0
					l-0.4,0.5c-0.2,0.1-0.3,0.1-0.4,0.1c-0.2,0-0.2,0-0.2,0l0,0.1c0.1,0,0.4-0.1,0.3,0c-0.1,0.1-0.3,0.2-0.3,0.3
					c0,0.1-0.1,0.4-0.1,0.4s0.1,0,0.1-0.1l-1,1.5l-0.1,0.2c-0.2-0.2-0.3-0.3-0.4-0.5l0,0c0-0.1,0-0.3,0-0.3
					c-0.1-0.2-0.2-0.2-0.3-0.3c0,0-0.1,0-0.1,0c-0.1-0.2-0.2-0.3-0.3-0.5c-0.1-0.1-0.1-0.3-0.2-0.4c0.2-0.3,0.5-0.7,0.7-1
					c0.1,0,0.2,0,0.2,0.1c0,0.1,0,0.1,0,0.1C185,48.6,185.1,48.6,185.2,48.5z M183.7,49.3c-0.1-0.1-0.1-0.3-0.1-0.5
					c0.1-0.2,0.1-0.3,0.2-0.3c0-0.1,0.2-0.5,0.3-0.6c0.1-0.1,0.1-0.1,0.1-0.1c0.1,0.2,0.2,0.4,0.3,0.5
					C184.1,48.7,183.9,49,183.7,49.3z M183.5,49.5L183.5,49.5c-0.1-0.1-0.2-0.3-0.2-0.3l0.1-0.1C183.5,49.3,183.5,49.4,183.5,49.5z
					 M183.8,67.3L183.8,67.3c-0.3-0.4-0.5-0.7-0.7-1.1C183.3,66.6,183.5,66.9,183.8,67.3z M182.5,65.1c0.1,0.2,0.2,0.4,0.3,0.5
					C182.7,65.5,182.6,65.3,182.5,65.1z M181.2,62c0.1,0.2,0.1,0.4,0.2,0.5C181.3,62.3,181.3,62.1,181.2,62z M185.5,69.3
					c0.5,0.3,1,0.7,1.6,1c0.2,0.4,0.5,0.7,0.7,1c0,0,0.1,0.1,0.1,0.1C187,70.8,186.2,70.1,185.5,69.3z M191.8,73.7
					c0.1,0,0.2,0.1,0.2,0.1c0,0,0,0,0,0C191.9,73.7,191.9,73.7,191.8,73.7z M192.5,73.9L192.5,73.9L192.5,73.9
					c0.3,0,0.6,0.1,0.9,0.2c0.6,0.1,1.2,0.2,1.8,0.3c0.1,0.1,0.2,0.2,0.3,0.3C194.4,74.6,193.4,74.3,192.5,73.9z M198.7,75.1
					C198.7,75.1,198.7,75.1,198.7,75.1l0-0.4h0h0h0c0.8,0,1.6,0,2.3-0.1c0.2,0,0.4,0,0.6-0.1c0,0-0.1,0.1-0.1,0.1
					c-0.1,0.1-0.2,0.1-0.2,0.2C200.5,75,199.6,75.1,198.7,75.1z M201.8,74.8c0.1-0.1,0.2-0.2,0.3-0.3c0.5-0.1,1-0.1,1.5-0.2
					l-0.1,0.1c0,0,0,0,0,0C202.9,74.6,202.3,74.7,201.8,74.8z M205.2,73.9L205.2,73.9C205.2,73.8,205.3,73.8,205.2,73.9
					C205.3,73.8,205.2,73.9,205.2,73.9z M209.5,71.5c0.3-0.3,0.5-0.7,0.7-1c0.6-0.3,1.1-0.6,1.6-1c-0.7,0.8-1.6,1.5-2.4,2.1
					C209.5,71.6,209.5,71.5,209.5,71.5z M181.4,51.4c0-0.1,0.1-0.3,0.3-0.4c0.1,0,0.3-0.3,0.3-0.4c0-0.1,0-0.2,0.3-0.3
					c0.2-0.1,0.3-0.1,0.6-0.3c0,0.1,0,0.1,0.3-0.2c-0.1,0.1-0.4,0.5-0.5,0.6c-0.1,0.1-0.3,0.4-0.4,0.5c-0.1,0.2-0.2,0.3-0.3,0.3
					c-0.1,0-0.3,0.4-0.3,0.5c0,0.1-0.2,0.3-0.3,0.4c-0.1,0.1-0.2,0.2-0.3,0.4l0,0c0,0,0,0,0,0c0.1-0.3,0.1-0.5,0.2-0.8
					C181.2,51.8,181.4,51.5,181.4,51.4z"/>
				<path class="st1" d="M200.2,74.5c0,0.1,0.1,0,0.2,0c0.1,0,0.2,0,0.1-0.1C200.3,74.4,200.2,74.4,200.2,74.5z"/>
				<path class="st1" d="M201.8,72c-0.1,0,0,0-0.1,0.2c-0.1-0.1-0.3,0-0.4,0c-0.1,0-0.2,0.1-0.2,0.2c0,0.1,0.5,0.1,0.5,0.1
					s0.2-0.2,0.3-0.3C202.1,72,201.9,71.9,201.8,72z"/>
				<path class="st1" d="M194.5,62.7c-0.1-0.1-0.2,0-0.3,0c-0.1,0.1-0.1,0.1-0.1,0.2l0,0.1c0,0,0.1-0.2,0.2-0.3
					c0-0.1,0.2-0.1,0.3,0.1C194.6,62.8,194.7,62.7,194.5,62.7z"/>
				<path class="st1" d="M188.9,54.7c0,0,0.1-0.1,0.1-0.2c0-0.1,0.1-0.1,0-0.1c0,0-0.2,0-0.2,0c0,0-0.1,0.1-0.1,0.2c0,0,0,0-0.1,0.1
					c-0.1,0.1,0.1,0,0.1,0C188.7,54.7,188.9,54.7,188.9,54.7z"/>
				<path class="st1" d="M201.9,72.3C201.8,72.4,201.8,72.4,201.9,72.3c0.2,0,0.2-0.1,0.2-0.1S202,72.3,201.9,72.3z"/>
				<path class="st1" d="M194.6,69.1c0,0.1,0.2,0.1,0.2,0.1l0-0.1l-0.1-0.1c-0.1,0-0.2,0-0.2,0C194.4,69,194.4,69,194.6,69.1
					C194.5,69.1,194.5,69.1,194.6,69.1z"/>
				<path class="st1" d="M189.3,55.5c0,0,0.2-0.1,0.2-0.2c0.2-0.1,0.3-0.3,0.3-0.3c-0.2,0-0.4,0.1-0.6,0.1c-0.2,0-0.5-0.1-0.3,0
					c0.1,0.1,0.3,0.1,0.3,0.1c-0.1,0-0.3,0.1-0.4,0.3c0,0.1,0,0.2-0.1,0.2c-0.1,0.1-0.4,0.2-0.4,0.3c0,0.1-0.1,0.1-0.2,0.1
					c-0.1,0.1-0.2,0.1-0.3,0.2c-0.1,0.1-0.2,0.1-0.3,0.1c-0.1,0-0.2,0-0.2,0c0.1,0.1,0.3,0.2,0.3,0.2s0.1-0.1,0.3,0
					c0.1,0,0.3,0,0.4-0.1c0.1-0.1,0.6-0.5,0.7-0.6C189,55.8,189.3,55.5,189.3,55.5z"/>
				<path class="st1" d="M194.9,62.8c0-0.1,0.1-0.3,0.1-0.3c0,0-0.2,0-0.3-0.1C194.6,62.5,194.7,62.6,194.9,62.8z"/>
				<path class="st1" d="M194.5,72.2C194.4,72.2,194.5,72.2,194.5,72.2c0.2,0.1,0.1,0.1,0.2,0C194.7,72.2,194.6,72.2,194.5,72.2z"/>
				<path class="st1" d="M195.2,72c-0.1,0-0.1-0.1-0.2-0.1c0-0.1-0.1,0,0,0.1c0,0-0.2,0.1-0.1,0.2c0.1,0,0.2,0.1,0.2,0.1
					c0.1-0.1,0,0,0-0.1C195.2,72,195.3,72,195.2,72z"/>
				<path class="st1" d="M195.3,70.5c0,0,0-0.1,0-0.1c0,0,0.1,0,0.1-0.1c0,0-0.1,0-0.1,0c0,0,0,0-0.1,0c-0.1,0,0,0.1,0,0.2
					C195.2,70.6,195.3,70.5,195.3,70.5z"/>
				<path class="st1" d="M196,71.7C196,71.7,196,71.7,196,71.7c-0.1,0-0.4-0.1-0.5-0.1c-0.2-0.1,0,0.1,0,0.2c0,0.1,0.1,0.2,0.1,0.2
					c0,0,0.2,0.1,0.2,0.1c0.1,0.1,0.1,0,0.3,0.1c0,0-0.1-0.2-0.1-0.3C196,71.9,196,71.8,196,71.7z"/>
				<path class="st1" d="M209,62.8c0,0.1,0.1,0.1,0.1,0c0,0,0-0.1,0-0.1C209,62.7,208.9,62.7,209,62.8z"/>
				<path class="st1" d="M210,63.3c0,0.1-0.2,0.2-0.2,0.3c-0.1,0,0,0.1,0,0.1c0,0.1,0,0.2,0,0.2s-0.1,0.1-0.2,0.1
					c-0.1,0,0,0.1,0,0.2c0,0.1,0.1-0.1,0.1-0.1c0,0,0.1-0.1,0.1-0.2c0-0.1,0.1-0.2,0.1-0.2c0,0,0.1-0.1,0.2-0.2
					c0-0.1,0.1-0.1,0.2-0.2c0.1-0.1,0-0.1,0-0.2C210,63,210,63.2,210,63.3z"/>
				<path class="st1" d="M196.4,71.4c0,0-0.2-0.1-0.3-0.2c-0.1-0.1-0.2,0.1-0.2,0.1s-0.1-0.1-0.1-0.2c0-0.1-0.1-0.1-0.1-0.1
					c0,0-0.2,0.1-0.3,0.2c-0.1,0.1,0.1,0.2,0.1,0.1c0,0,0.4,0.1,0.6,0.3c0,0,0,0.1,0,0.2c0,0,0,0.1,0,0.1c0,0,0.2,0.2,0.2,0.4
					c0,0,0.1,0,0.2,0c0,0,0.3,0,0.4,0c0,0,0.2,0,0.3-0.1c0.1-0.1,0.1-0.1,0.4-0.2c0,0-0.5-0.3-0.6-0.3
					C196.8,71.7,196.4,71.5,196.4,71.4z"/>
				<path class="st1" d="M195.1,71.8c0,0,0,0.1,0.2,0.2c0,0-0.1-0.1-0.1-0.2L195.1,71.8z"/>
				<path class="st1" d="M200.3,74.3c-0.1,0-0.3,0-0.3,0c0.1,0,0.1,0.1,0.1,0.1C200.3,74.4,200.5,74.3,200.3,74.3z"/>
				<g>
					<path class="st1" d="M145.4,56.9l34.9,11.1c1.8,2.9,4.2,5.3,7,7.1l1.3,4h0l2.2,6.8l0.4,1.2l1,3.2h0l2.4,7.6l4.2,16.1l11.6-39.1
						c2.8-1.8,5.2-4.2,6.9-7.1L252,56.9l-35.2-12c-1.7-2.6-3.9-4.8-6.6-6.4L198.6,0.8l-11.7,37.8c-2.6,1.7-4.8,3.9-6.5,6.5
						L145.4,56.9z M207.3,36.9c-2.5-1.1-5.3-1.8-8.3-1.8l-0.4-26.8L207.3,36.9z M218.7,64.9c1-2.5,1.6-5.1,1.6-7.9l24.9,0
						L218.7,64.9z M190.4,76.7c2.5,1.1,5.3,1.6,8.2,1.6c0.1,0,0.1,0,0.2,0l-0.3,27.4L190.4,76.7z M178.2,56.6
						c0-11.3,9.2-20.5,20.5-20.5c11.3,0,20.5,9.2,20.5,20.5s-9.2,20.5-20.5,20.5C187.4,77.1,178.2,67.9,178.2,56.6z M151.3,57
						l27.5-8.7c-1.1,2.6-1.7,5.4-1.7,8.4L151.3,57z"/>
					<path class="st1" d="M185.3,43.2c0.1-0.1,0.2-0.2,0.2-0.2C185.5,43.1,185.4,43.1,185.3,43.2z"/>
					<path class="st1" d="M198.8,37.6C198.8,37.6,198.8,37.6,198.8,37.6C198.8,37.6,198.8,37.6,198.8,37.6
						C198.8,37.6,198.8,37.6,198.8,37.6z"/>
					<path class="st1" d="M198.5,37.6c-4.5,0.1-8.7,1.8-11.9,4.5C189.8,39.4,194,37.7,198.5,37.6z"/>
				</g>
			</g>
		</g>
		<path class="st1" d="M121.9,98.2C53.5,98.2,0,80.1,0,57s53.5-41.2,121.9-41.2c27,0,52.6,2.9,74,8.3l-0.7,2.8
			c-21.1-5.4-46.5-8.3-73.3-8.3c-64.5,0-119,17.6-119,38.4s54.5,38.4,119,38.4c25.9,0,50.5-2.7,71.3-7.8l0.7,2.8
			C172.9,95.5,148,98.2,121.9,98.2z"/>
		<path class="st1" d="M202.6,88l-0.8-2.7c22.5-6.7,36.7-16,38.8-25.7c0.1-0.3,0.1-0.7,0.1-0.8c0,0,0,0.2,0.2,0.5
			c0,0,2.7-1.3,2.6-0.3c0,0.3-0.1,0.8-0.2,1.3C241,71.1,226.5,80.9,202.6,88z"/>
		<path class="st1" d="M240.8,55.9c-0.8-9.5-13-18.7-33.9-25.7c-0.8-0.3-1.7-3.5-1.7-3.5c24.2,7.6,37.8,18,38.5,29.3
			C243.7,56.3,240.9,56.3,240.8,55.9z"/>
		<g>
			<path class="st0" d="M74.6,74l3-10.3h9.6l3,10.3h8.4L88.5,39.2h-7.8L70.6,74H74.6L74.6,74z M100.5,74h7.8V43.8h1.6
				c4.5,0,6.4,2.7,6.4,6.6c0,5.3-3.2,6.3-6.8,6.3c-0.3,0-0.6,0-0.7-0.1l6.7,17.5h8.8l-6.7-15.1c3.3-1.1,6.6-3.6,6.6-8.9
				c0-8.2-6.3-10.7-11.8-10.7h-11.9V74L100.5,74z M133.7,74h7.8V43.9h7.8v-4.7h-23.4v4.7h7.8V74L133.7,74z M37.7,45.2
				c-2.2-4.7-5.3-6.7-9.6-6.7c-4.9,0-9.2,5.1-9.2,11.2c0,6.8,4.2,9.5,7.6,11.1c1.9,0.9,4.3,2.2,4.3,5.2c0,2.6-1.6,4.3-3.6,4.3
				c-2.4,0-4-2.7-5.1-5.1l-3.6,2.8c2.3,4.5,5.2,6.7,9.6,6.7c5.8,0,10.2-4.7,10.2-12.1c0-5.7-4.1-8.6-8-10.4c-2-1-4.4-2.4-4.4-5.8
				c0-2.2,1.8-3.5,3.5-3.5c2.5,0,4.1,2.4,5,5L37.7,45.2L37.7,45.2z M41.1,74H45V51.3L52.6,74h0.8L61,51.4V74h7.8V39.2h-7.6L55,57.8
				l-6.2-18.5h-7.7V74L41.1,74z M82.4,46.9L86,59.3h-7.1L82.4,46.9z"/>
		</g>
	</g>
</g>
</svg>
